PathFileType	4	(X/Y/Z)	 0.06m3min.trc
DataRate	CameraRate	NumFrames	NumMarkers	Units	OrigDataRate	OrigDataStartFrame	OrigNumFrames
200	200	8	43	m	200	751	1000
Frame#	Time	C7			LSH			RSH			MAN			RASI			LASI			HIPR			HIPL			RPSI			LPSI			COX			RTHI1			RTHI2			RTHI3			RTHI4			RLKN			RMKN			RSHA1			RSHA2			RSHA3			RSHA4			RLMAL			RMMAL			RHEEL			RMET5			RMET1			RTOE			LTHI1			LTHI2			LTHI3			LTHI4			LLKN			LMKN			LSHA1			LSHA2			LSHA3			LSHA4			LLMAL			LMMAL			LHEEL			LMET5			LMET1			LTOE			
		X1	Y1	Z1	X2	Y2	Z2	X3	Y3	Z3	X4	Y4	Z4	X5	Y5	Z5	X6	Y6	Z6	X7	Y7	Z7	X8	Y8	Z8	X9	Y9	Z9	X10	Y10	Z10	X11	Y11	Z11	X12	Y12	Z12	X13	Y13	Z13	X14	Y14	Z14	X15	Y15	Z15	X16	Y16	Z16	X17	Y17	Z17	X18	Y18	Z18	X19	Y19	Z19	X20	Y20	Z20	X21	Y21	Z21	X22	Y22	Z22	X23	Y23	Z23	X24	Y24	Z24	X25	Y25	Z25	X26	Y26	Z26	X27	Y27	Z27	X28	Y28	Z28	X29	Y29	Z29	X30	Y30	Z30	X31	Y31	Z31	X32	Y32	Z32	X33	Y33	Z33	X34	Y34	Z34	X35	Y35	Z35	X36	Y36	Z36	X37	Y37	Z37	X38	Y38	Z38	X39	Y39	Z39	X40	Y40	Z40	X41	Y41	Z41	X42	Y42	Z42	X43	Y43	Z43	
751	3.7550	-0.294292	1.421713	-0.523388	-0.209020	1.414084	-0.671895	-0.234450	1.406662	-0.367731	-0.173350	1.373063	-0.515537	-0.156344	0.941867	-0.403760	-0.159534	0.936878	-0.636330	-0.197081	1.011832	-0.381502	-0.188024	1.006302	-0.655780	-0.320912	0.989447	-0.483163	-0.320825	0.989149	-0.554171	-0.318220	0.996002	-0.517543	-0.274676	0.761962	-0.343914	-0.261945	0.703463	-0.338227	-0.198784	0.714071	-0.328862	-0.203082	0.775514	-0.333584	-0.238713	0.504109	-0.350698	-0.216426	0.489046	-0.470091	-0.325391	0.334594	-0.350931	-0.334129	0.292631	-0.361788	-0.273959	0.283744	-0.347423	-0.273831	0.323763	-0.339140	-0.325794	0.156803	-0.369150	-0.290435	0.159093	-0.441271	-0.370346	0.151288	-0.416571	-0.247049	0.067504	-0.339056	-0.203214	0.067571	-0.399737	-0.185734	0.059056	-0.390786	-0.271473	0.779528	-0.695848	-0.254577	0.721035	-0.705831	-0.190484	0.733661	-0.707125	-0.199855	0.792252	-0.698484	-0.254875	0.501954	-0.695967	-0.223917	0.494919	-0.577671	-0.344964	0.343513	-0.694501	-0.350187	0.304522	-0.690532	-0.291219	0.297502	-0.706110	-0.291777	0.339550	-0.713851	-0.332849	0.165667	-0.690694	-0.309216	0.166526	-0.616270	-0.384517	0.161867	-0.642525	-0.265516	0.068780	-0.710062	-0.223330	0.063196	-0.647213	-0.209248	0.056359	-0.653930	
752	3.7600	-0.294229	1.419929	-0.523333	-0.208814	1.411818	-0.672073	-0.234251	1.404549	-0.367470	-0.173189	1.371038	-0.515494	-0.156835	0.940003	-0.403735	-0.159926	0.935068	-0.636348	-0.197750	1.009791	-0.381505	-0.188573	1.004325	-0.655741	-0.321483	0.987262	-0.483183	-0.321324	0.986948	-0.554155	-0.318843	0.993894	-0.517536	-0.274276	0.759756	-0.343805	-0.261189	0.701339	-0.338105	-0.198049	0.712306	-0.329036	-0.202716	0.773726	-0.333788	-0.237357	0.502216	-0.350480	-0.215216	0.487289	-0.469792	-0.325193	0.333279	-0.350844	-0.334278	0.291444	-0.361760	-0.274154	0.282127	-0.347510	-0.273739	0.322092	-0.339170	-0.326557	0.155419	-0.369377	-0.291536	0.157718	-0.441640	-0.371405	0.149990	-0.416469	-0.247578	0.066189	-0.339928	-0.204204	0.066380	-0.400938	-0.186687	0.057950	-0.392148	-0.271318	0.777065	-0.695908	-0.253954	0.718693	-0.705777	-0.189959	0.731795	-0.706942	-0.199793	0.790341	-0.698408	-0.253802	0.500258	-0.695990	-0.221960	0.493430	-0.578027	-0.344664	0.342188	-0.694309	-0.350077	0.303255	-0.690352	-0.291122	0.295929	-0.705895	-0.291493	0.337974	-0.713663	-0.333208	0.164119	-0.690282	-0.309949	0.165172	-0.615694	-0.385235	0.160447	-0.642451	-0.265796	0.067124	-0.708829	-0.224100	0.061941	-0.645646	-0.209931	0.055181	-0.652246	
753	3.7650	-0.294119	1.417903	-0.523281	-0.208583	1.409300	-0.672223	-0.234046	1.402208	-0.367232	-0.173005	1.368763	-0.515448	-0.157315	0.937919	-0.403707	-0.160326	0.933012	-0.636372	-0.198415	1.007526	-0.381525	-0.189156	1.002076	-0.655703	-0.322096	0.984830	-0.483174	-0.321863	0.984471	-0.554148	-0.319503	0.991517	-0.517528	-0.273899	0.757310	-0.343723	-0.260465	0.698969	-0.338006	-0.197361	0.710288	-0.329168	-0.202377	0.771681	-0.333965	-0.236053	0.500083	-0.350268	-0.214062	0.485267	-0.469529	-0.324976	0.331708	-0.350759	-0.334382	0.289980	-0.361738	-0.274306	0.280271	-0.347598	-0.273625	0.320164	-0.339210	-0.327257	0.153790	-0.369616	-0.292606	0.156124	-0.442009	-0.372426	0.148513	-0.416361	-0.248128	0.064551	-0.340848	-0.205236	0.064854	-0.402163	-0.187688	0.056498	-0.393567	-0.271234	0.774394	-0.695964	-0.253419	0.716134	-0.705714	-0.189526	0.729700	-0.706755	-0.199804	0.788188	-0.698319	-0.252774	0.498343	-0.696010	-0.220134	0.491666	-0.578361	-0.344350	0.340617	-0.694136	-0.349917	0.301723	-0.690160	-0.291015	0.294111	-0.705706	-0.291199	0.336152	-0.713500	-0.333539	0.162310	-0.689910	-0.310616	0.163557	-0.615157	-0.385918	0.158821	-0.642446	-0.266079	0.065140	-0.707577	-0.224870	0.060365	-0.644053	-0.210634	0.053660	-0.650521	
754	3.7700	-0.293967	1.415634	-0.523237	-0.208320	1.406530	-0.672347	-0.233796	1.399624	-0.367014	-0.172810	1.366238	-0.515398	-0.157780	0.935610	-0.403674	-0.160731	0.930708	-0.636401	-0.199069	1.005036	-0.381564	-0.189760	0.999563	-0.655663	-0.322751	0.982157	-0.483139	-0.322448	0.981728	-0.554144	-0.320190	0.988859	-0.517509	-0.273546	0.754622	-0.343661	-0.259780	0.696360	-0.337919	-0.196719	0.708018	-0.329253	-0.202070	0.769378	-0.334104	-0.234801	0.497713	-0.350060	-0.212973	0.482980	-0.469300	-0.324748	0.329877	-0.350679	-0.334425	0.288213	-0.361732	-0.274425	0.278169	-0.347693	-0.273465	0.317953	-0.339277	-0.327901	0.151920	-0.369863	-0.293629	0.154303	-0.442361	-0.373403	0.146864	-0.416257	-0.248725	0.062571	-0.341799	-0.206298	0.062916	-0.403364	-0.188739	0.054667	-0.395006	-0.271210	0.771516	-0.696012	-0.252964	0.713367	-0.705651	-0.189178	0.727364	-0.706562	-0.199883	0.785796	-0.698229	-0.251780	0.496186	-0.696028	-0.218484	0.489605	-0.578651	-0.344013	0.338787	-0.693984	-0.349713	0.299920	-0.689949	-0.290884	0.292038	-0.705530	-0.290886	0.334084	-0.713360	-0.333843	0.160241	-0.689567	-0.311235	0.161691	-0.614664	-0.386553	0.156969	-0.642460	-0.266378	0.062804	-0.706318	-0.225655	0.058487	-0.642498	-0.211340	0.051819	-0.648812	
755	3.7750	-0.293768	1.413128	-0.523200	-0.208024	1.403519	-0.672448	-0.233528	1.396823	-0.366812	-0.172609	1.363459	-0.515345	-0.158219	0.933075	-0.403638	-0.161137	0.928145	-0.636435	-0.199707	1.002319	-0.381617	-0.190379	0.996783	-0.655625	-0.323443	0.979248	-0.483085	-0.323084	0.978733	-0.554145	-0.320872	0.985906	-0.517482	-0.273219	0.751690	-0.343608	-0.259137	0.693512	-0.337839	-0.196136	0.705491	-0.329280	-0.201799	0.766818	-0.334196	-0.233603	0.495098	-0.349857	-0.211960	0.480423	-0.469100	-0.324484	0.327778	-0.350593	-0.334393	0.286171	-0.361725	-0.274485	0.275811	-0.347800	-0.273232	0.315469	-0.339354	-0.328490	0.149808	-0.370105	-0.294601	0.152246	-0.442699	-0.374314	0.145051	-0.416170	-0.249402	0.060208	-0.342698	-0.207420	0.060647	-0.404618	-0.189875	0.052403	-0.396410	-0.271236	0.768424	-0.696044	-0.252590	0.710381	-0.705578	-0.188907	0.724787	-0.706377	-0.200011	0.783163	-0.698145	-0.250804	0.493776	-0.696045	-0.217014	0.487231	-0.578879	-0.343641	0.336689	-0.693858	-0.349483	0.297847	-0.689755	-0.290717	0.289698	-0.705363	-0.290544	0.331749	-0.713235	-0.334118	0.157917	-0.689252	-0.311802	0.159555	-0.614198	-0.387120	0.154907	-0.642481	-0.266704	0.060131	-0.705042	-0.226425	0.056259	-0.640978	-0.212055	0.049618	-0.647120	
756	3.7800	-0.293522	1.410385	-0.523178	-0.207696	1.400282	-0.672527	-0.233241	1.393800	-0.366631	-0.172406	1.360427	-0.515290	-0.158629	0.930307	-0.403597	-0.161546	0.925321	-0.636477	-0.200316	0.999378	-0.381675	-0.191005	0.993738	-0.655590	-0.324166	0.976100	-0.483017	-0.323764	0.975487	-0.554149	-0.321513	0.982646	-0.517459	-0.272923	0.748532	-0.343553	-0.258551	0.690425	-0.337759	-0.195618	0.702707	-0.329248	-0.201568	0.764002	-0.334234	-0.232457	0.492239	-0.349661	-0.211020	0.477607	-0.468924	-0.324174	0.325399	-0.350504	-0.334275	0.283860	-0.361701	-0.274462	0.273186	-0.347924	-0.272906	0.312721	-0.339431	-0.329016	0.147448	-0.370339	-0.295489	0.149944	-0.443017	-0.375144	0.143071	-0.416102	-0.250150	0.057467	-0.343592	-0.208576	0.057930	-0.405820	-0.191064	0.049696	-0.397771	-0.271296	0.765119	-0.696056	-0.252292	0.707165	-0.705492	-0.188692	0.721968	-0.706220	-0.200171	0.780287	-0.698077	-0.249838	0.491087	-0.696058	-0.215731	0.484545	-0.579037	-0.343227	0.334314	-0.693764	-0.349220	0.295480	-0.689581	-0.290502	0.287079	-0.705197	-0.290162	0.329129	-0.713123	-0.334369	0.155330	-0.688953	-0.312333	0.157138	-0.613761	-0.387617	0.152600	-0.642451	-0.267109	0.057110	-0.703815	-0.227198	0.053691	-0.639501	-0.212801	0.047014	-0.645514	
757	3.7850	-0.293236	1.407400	-0.523171	-0.207338	1.396823	-0.672583	-0.232948	1.390578	-0.366478	-0.172204	1.357142	-0.515230	-0.159010	0.927304	-0.403550	-0.161948	0.922231	-0.636526	-0.200890	0.996208	-0.381736	-0.191629	0.990429	-0.655565	-0.324905	0.972708	-0.482946	-0.324479	0.972004	-0.554153	-0.322111	0.979083	-0.517431	-0.272669	0.745138	-0.343480	-0.258029	0.687116	-0.337662	-0.195168	0.699676	-0.329162	-0.201383	0.760933	-0.334214	-0.231360	0.489133	-0.349475	-0.210147	0.474543	-0.468765	-0.323800	0.322726	-0.350393	-0.334077	0.281247	-0.361643	-0.274331	0.270274	-0.348042	-0.272468	0.309723	-0.339491	-0.329479	0.144834	-0.370524	-0.296293	0.147384	-0.443311	-0.375886	0.140898	-0.416055	-0.251013	0.054296	-0.344464	-0.209789	0.054766	-0.406936	-0.192332	0.046535	-0.399060	-0.271382	0.761596	-0.696046	-0.252051	0.703737	-0.705406	-0.188531	0.718900	-0.706092	-0.200353	0.777163	-0.698026	-0.248880	0.488105	-0.696077	-0.214622	0.481548	-0.579124	-0.342771	0.331646	-0.693706	-0.348934	0.292808	-0.689455	-0.290236	0.284173	-0.705034	-0.289725	0.326217	-0.713018	-0.334637	0.152486	-0.688656	-0.312836	0.154459	-0.613350	-0.388097	0.150053	-0.642329	-0.267609	0.053717	-0.702627	-0.227993	0.050755	-0.638106	-0.213587	0.044015	-0.643981	
758	3.7900	-0.292932	1.404175	-0.523181	-0.206937	1.393162	-0.672615	-0.232633	1.387130	-0.366348	-0.172007	1.353601	-0.515168	-0.159357	0.924056	-0.403499	-0.162336	0.918878	-0.636587	-0.201430	0.992808	-0.381794	-0.192241	0.986875	-0.655549	-0.325635	0.969069	-0.482889	-0.325216	0.968288	-0.554149	-0.322666	0.975233	-0.517390	-0.272463	0.741521	-0.343385	-0.257576	0.683576	-0.337545	-0.194787	0.696393	-0.329027	-0.201252	0.757619	-0.334137	-0.230309	0.485784	-0.349301	-0.209348	0.471240	-0.468618	-0.323354	0.319746	-0.350240	-0.333813	0.278333	-0.361531	-0.274116	0.267085	-0.348138	-0.271921	0.306464	-0.339515	-0.329927	0.141968	-0.370655	-0.297049	0.144557	-0.443580	-0.376613	0.138476	-0.416046	-0.251936	0.050728	-0.345309	-0.211020	0.051200	-0.408043	-0.193621	0.042906	-0.400300	-0.271485	0.757860	-0.696010	-0.251863	0.700092	-0.705319	-0.188414	0.715572	-0.705996	-0.200541	0.773795	-0.697994	-0.247927	0.484821	-0.696112	-0.213687	0.478237	-0.579154	-0.342286	0.328668	-0.693709	-0.348632	0.289831	-0.689389	-0.289931	0.280958	-0.704884	-0.289252	0.322998	-0.712943	-0.335043	0.149425	-0.688352	-0.313422	0.151528	-0.612944	-0.388697	0.147203	-0.642077	-0.268248	0.050024	-0.701519	-0.228830	0.047790	-0.636430	-0.214313	0.041320	-0.642181	
